# xmcd
#
# Track frame offsets: 
#        150
#        12820
#        25677
#        39225
#        52670
#        66955
#        81345
#        96472
#        111215
#        125312
#        139412
#        153475
#        167342
#        181755
#        196192
#        210090
#        223047
#        237145
#        251595
#        264645
#        279512
#        292215
#        305515
#        318205
#        332530
#
# Disc length: 4608 seconds
#
# Revision: 0
# Processed by: cddbd v1.5.2PL0 Copyright (c) Steve Scherf et al.
# Submitted via: ExactAudioCopy v0.99pb3
#
DISCID=5811fe19
DTITLE=Bumble Bee Slim - Volume 4 4th April to 18 July 1935
DYEAR=1935
DGENRE=Blues
TTITLE0=Policy dream blues
TTITLE1=If the blues was whiskey
TTITLE2=Right from wrong
TTITLE3=Feather bed blues
TTITLE4=What`s wrong?
TTITLE5=Mean bloody murder blues
TTITLE6=Walking and drifting blues
TTITLE7=When the sun goes down
TTITLE8=Can`t you trust me no more?
TTITLE9=Where was you last night?
TTITLE10=I done lost my baby
TTITLE11=I`m needing someone
TTITLE12=The death of Leroy Carr
TTITLE13=Smoky Mountain blues
TTITLE14=Sail on sail on blues
TTITLE15=Hey lawdy mama
TTITLE16=I keep on drinking - part 1
TTITLE17=I keep on drinking - part 2
TTITLE18=Sometimes blues
TTITLE19=Steady roll mama blues
TTITLE20=Fattenin` frogs for snakes
TTITLE21=Lemon squeezing blues
TTITLE22=When the sun goes down
TTITLE23=Sail on little girl - no. 3
TTITLE24=Cold blooded murder - no. 2
EXTD=
EXTT0=
EXTT1=
EXTT2=
EXTT3=
EXTT4=
EXTT5=
EXTT6=
EXTT7=
EXTT8=
EXTT9=
EXTT10=
EXTT11=
EXTT12=
EXTT13=
EXTT14=
EXTT15=
EXTT16=
EXTT17=
EXTT18=
EXTT19=
EXTT20=
EXTT21=
EXTT22=
EXTT23=
EXTT24=
PLAYORDER=
